<?xml version="1.0" standalone="no"?>
<!DOCTYPE svg PUBLIC "-//W3C//DTD SVG 20010904//EN"
 "http://www.w3.org/TR/2001/REC-SVG-20010904/DTD/svg10.dtd">
<svg version="1.0" xmlns="http://www.w3.org/2000/svg"
 width="690.000000pt" height="528.000000pt" viewBox="0 0 690.000000 528.000000"
 preserveAspectRatio="xMidYMid meet">
<metadata></metadata>
<g transform="translate(0.000000,528.000000) scale(0.100000,-0.100000)"
fill="#000000" stroke="none">
<path d="M2555 4983 c-73 -8 -204 -52 -258 -87 -86 -55 -182 -166 -202 -236
-4 -14 -13 -32 -20 -40 -7 -8 -16 -26 -20 -40 -17 -54 -69 -131 -113 -167 -81
-66 -107 -81 -188 -109 l-79 -28 -570 -6 -570 -6 -69 -27 c-81 -33 -144 -74
-180 -119 -14 -18 -31 -39 -37 -46 -20 -24 -66 -147 -72 -192 -4 -25 -7 -765
-8 -1645 l-2 -1600 26 -62 c67 -156 151 -230 315 -276 l77 -22 2765 0 c2641 0
2768 1 2830 18 131 37 217 91 272 172 55 82 76 148 82 257 4 57 2 798 -2 1648
l-9 1545 -27 69 c-47 121 -135 205 -262 254 l-69 26 -590 6 c-590 7 -590 7
-655 31 -106 39 -191 98 -236 165 -12 18 -37 63 -55 101 -17 37 -36 77 -42 88
-6 11 -18 34 -27 52 -27 55 -105 137 -177 186 -38 26 -76 47 -84 47 -8 0 -42
10 -74 23 l-60 22 -785 1 c-432 1 -803 -1 -825 -3z m2473 -1234 c85 -49 115
-152 70 -236 -71 -131 -246 -131 -315 0 -45 85 -19 175 66 233 47 32 126 33
179 3z m-1409 -88 c41 -12 84 -21 95 -21 12 0 37 -9 57 -19 20 -11 53 -23 73
-26 20 -4 46 -15 59 -25 12 -9 33 -21 46 -25 35 -11 177 -101 241 -153 93 -76
202 -195 264 -288 33 -49 68 -101 78 -116 10 -15 18 -33 18 -40 0 -7 11 -31
25 -53 13 -22 25 -49 25 -60 0 -11 8 -36 19 -55 46 -87 83 -363 70 -528 -7
-103 -50 -305 -73 -347 -9 -16 -16 -35 -16 -41 0 -11 -58 -134 -89 -189 -58
-103 -136 -203 -225 -288 -79 -75 -82 -77 -141 -117 -27 -19 -59 -42 -70 -51
-29 -24 -211 -114 -270 -134 -54 -18 -115 -34 -240 -61 -96 -21 -333 -24 -410
-5 -27 7 -83 19 -123 26 -40 8 -84 20 -96 29 -13 8 -40 18 -61 22 -35 6 -107
41 -206 98 -189 109 -382 304 -479 483 -11 21 -24 45 -29 53 -21 35 -61 126
-61 138 0 6 -9 29 -20 49 -10 20 -22 57 -26 82 -3 25 -15 82 -25 126 -30 128
-26 315 10 490 16 77 36 154 45 170 9 17 16 36 16 43 0 24 90 196 146 279 60
87 170 206 264 284 63 52 205 143 241 154 13 4 35 15 49 25 14 10 41 21 60 25
19 4 52 16 72 26 21 11 48 19 61 19 13 0 48 7 78 16 92 28 148 33 314 29 121
-3 178 -9 234 -24z"/>
<path d="M3175 3490 c-72 -14 -198 -50 -261 -75 -76 -30 -200 -99 -234 -130
-14 -12 -33 -27 -43 -32 -28 -15 -177 -164 -203 -203 -13 -19 -36 -53 -52 -75
-56 -79 -142 -260 -142 -299 0 -12 -10 -49 -22 -81 -20 -54 -23 -78 -23 -255
0 -177 2 -201 22 -258 13 -34 23 -71 23 -83 0 -27 80 -203 132 -289 63 -103
250 -292 343 -344 17 -10 48 -28 70 -41 22 -14 51 -30 65 -36 14 -6 48 -21 75
-34 28 -13 70 -26 95 -30 25 -4 63 -15 85 -24 58 -24 432 -24 490 0 22 9 60
20 85 24 39 6 108 33 175 68 11 6 37 19 57 29 129 63 321 239 405 371 101 158
146 273 185 472 15 78 5 372 -15 417 -8 21 -19 59 -23 85 -8 59 -99 245 -162
334 -64 90 -103 134 -186 207 -96 85 -88 79 -181 133 -137 78 -191 98 -390
143 -74 17 -295 20 -370 6z"/>
<path d="M932 4667 c-32 -33 -32 -34 -32 -135 0 -102 0 -103 27 -113 16 -6
130 -9 296 -7 317 4 297 -5 297 123 0 71 -3 85 -25 115 -14 19 -31 37 -37 42
-7 4 -121 8 -254 8 l-240 0 -32 -33z"/>
</g>
</svg>
